<?xml version="1.0" standalone="no"?>
<!DOCTYPE svg PUBLIC "-//W3C//DTD SVG 20010904//EN"
 "http://www.w3.org/TR/2001/REC-SVG-20010904/DTD/svg10.dtd">
<svg version="1.0" xmlns="http://www.w3.org/2000/svg"
 width="512.000000pt" height="512.000000pt" viewBox="0 0 512.000000 512.000000"
 preserveAspectRatio="xMidYMid meet">

<g transform="translate(0.000000,512.000000) scale(0.100000,-0.100000)"
fill="#000000" stroke="none">
<path d="M2340 4990 c-414 -50 -775 -196 -1098 -444 -104 -80 -309 -284 -384
-381 -449 -590 -574 -1328 -343 -2022 144 -433 429 -815 805 -1078 65 -46 78
-60 71 -73 -5 -9 -131 -203 -280 -431 -149 -228 -270 -416 -268 -417 5 -5
2247 584 2366 622 484 153 886 454 1164 874 178 269 306 615 347 940 17 140
13 417 -9 565 -138 933 -851 1662 -1786 1826 -136 24 -458 34 -585 19z m553
-1365 c65 -22 116 -44 114 -50 -2 -5 -127 -368 -277 -805 -150 -437 -275 -797
-276 -799 -2 -2 -59 16 -128 39 l-124 43 43 126 c78 227 505 1466 510 1479 3
8 9 12 13 10 5 -2 61 -21 125 -43z m-925 -405 c40 -55 72 -104 72 -109 0 -5
-83 -69 -185 -142 -102 -73 -182 -135 -178 -139 4 -4 82 -67 173 -140 91 -73
173 -141 184 -151 18 -17 16 -20 -63 -118 l-82 -101 -152 123 c-84 68 -228
185 -320 260 -92 75 -167 140 -166 144 1 8 628 471 640 472 3 1 38 -44 77 -99z
m1655 -143 c258 -186 316 -232 305 -242 -7 -6 -146 -119 -308 -250 -162 -131
-302 -245 -311 -252 -15 -13 -25 -4 -95 82 -44 53 -80 100 -82 105 -2 4 80 76
183 159 102 84 185 155 184 159 0 5 -304 226 -362 263 -6 4 17 44 53 95 82
116 91 125 104 117 6 -4 154 -110 329 -236z"/>
</g>
</svg>
